<svg xmlns="http://www.w3.org/2000/svg" version="1.1" xmlns:xlink="http://www.w3.org/1999/xlink" xmlns:svgjs="http://svgjs.dev/svgjs" width="100%" height="100%" viewBox="0 0 1000 600"><rect width="1000" height="600" x="0" y="0" fill="#072c59"/><g><circle r="166.66666666666666" cx="318.6680552164713" cy="340.89026179143286" fill="#b88746" transform="matrix(0.8223609361422812,0,0,0.8223609361422812,0,19.6651537473181)"/><path d="M333.58884635427404 415.89025406581453L333.58884635427404 415.89025406581453Q314.6373104153748 415.89025406581453 300.23980027671854 410.2330791586805Q285.8422901380622 404.57590425154643 276.05537754872023 394.392989418705Q266.2684649593782 384.21007458586365 261.2335792920289 370.5197113105991Q256.1986936246795 356.8293480353346 256.1986936246795 340.819543048145L256.1986936246795 340.819543048145Q256.1986936246795 318.92627615753605 265.2218876015584 301.9830373106694Q274.21679570390165 285.03979846380275 290.67917468366187 275.45088699621044Q307.11326778888645 265.89026140315383 329.40253692299484 265.89026140315383L329.40253692299484 265.89026140315383Q337.03972304762584 265.89026140315383 344.2243351796862 266.908552886438Q351.4089473117465 267.9268443697221 357.77326908227235 269.70885446546936Q364.1375908527982 271.4908645612166 369.48362114003993 273.52744752778483Q374.82965142728165 275.5640304943531 378.7048162386685 277.6006134609214L378.7048162386685 277.6006134609214L377.06423551559965 295.3075709202511Q368.60675902943416 290.6404016218655 360.6867141594464 287.72695654469146Q352.73838341492296 284.8135114675174 345.18605491389894 283.51236123887657Q337.6620122874106 282.18292513570003 330.5339719044216 282.18292513570003L330.5339719044216 282.18292513570003Q318.42761760315466 282.18292513570003 308.27298864484897 286.1429475706939Q298.1466455610789 290.1312558802234 290.70746055819757 297.7684420048545Q283.29656142985186 305.40562812948554 279.251681371251 316.29568982571874Q275.2350871871858 327.1857515219519 275.2350871871858 340.9326865462877L275.2350871871858 340.9326865462877Q275.2350871871858 353.35018546744703 278.74253562960894 364.15538954007326Q282.2782699465677 374.93230773816373 289.54773970223505 383.0786396044368Q296.8172094579024 391.22497147070993 308.1315592721706 395.77899727095286Q319.4459090864388 400.30473719666014 334.9182824574506 400.30473719666014L334.9182824574506 400.30473719666014Q340.6037432391203 400.30473719666014 346.31748989532576 399.73901970594676Q352.0312365515312 399.17330221523326 357.57526796052264 397.9004378611282Q363.11929936951407 396.627573507023 368.5219014058271 394.647562289526Q373.92450344214024 392.6675510720291 379.0159608585609 389.9238212420691L379.0159608585609 389.9238212420691L381.13740144873617 407.2347764578994Q377.68652475538437 408.8470713064326 372.53849558989236 410.3745085313588Q367.3904664244003 411.901945756285 361.0827164029458 413.1748101103902Q354.77496638149125 414.4476744644954 347.7883553711806 415.1548213278872Q340.83003023540573 415.89025406581453 333.58884635427404 415.89025406581453ZM381.13740144873617 407.2347764578994L363.7415886092988 407.51763520325613Q363.7415886092988 396.74071700516566 363.7415886092988 388.67924276249954Q363.7415886092988 380.6460543943692 363.7415886092988 372.6128660262387L363.7415886092988 372.6128660262387Q363.7415886092988 363.0239545586464 363.7415886092988 355.6979130539077Q363.7415886092988 348.37187154916904 363.7415886092988 340.819543048145L363.7415886092988 340.819543048145L381.13740144873617 340.819543048145Q381.13740144873617 348.37187154916904 381.13740144873617 355.6979130539077Q381.13740144873617 363.0239545586464 381.13740144873617 372.6128660262387L381.13740144873617 372.6128660262387Q381.13740144873617 380.6460543943692 381.13740144873617 388.6509568879639Q381.13740144873617 396.627573507023 381.13740144873617 407.2347764578994L381.13740144873617 407.2347764578994Z " fill="#ffff" transform="matrix(0.8223609361422812,0,0,0.8223609361422812,0,19.6651537473181)"/><path d="M597.543405698966 383.076275123103L597.543405698966 383.076275123103Q592.2523586641479 383.076275123103 586.9138582926946 382.2221150636705Q581.5753579212413 381.367955004238 576.8774775943624 379.96808157350137Q572.1795972674836 378.5444814744471 568.6680503564831 376.7649813506294L568.6680503564831 376.7649813506294L569.783203767409 363.5255004294252Q573.7218307081256 365.7320805829593 578.2061710201464 367.4166740335067Q582.6905113321671 369.07754081573665 587.5070250006339 369.9791542118043Q592.3472653374182 370.85704093955445 597.21123234252 370.85704093955445L597.21123234252 370.85704093955445Q601.909112669399 370.85704093955445 605.8714662784331 369.7893408652638Q609.857546555785 368.72164079097314 612.2064867192244 365.8744405928647Q614.5554268826638 363.0035137264387 614.5554268826638 357.5463800133976L614.5554268826638 357.5463800133976Q614.5554268826638 353.9636530974445 612.4912067390352 351.63843960232265Q610.4507132637242 349.33695277551834 605.6104729269399 347.46254597843034Q600.7939592584731 345.5881391813422 592.5845320205939 343.2866523545379L592.5845320205939 343.2866523545379Q585.846158218404 341.3885188891323 580.5551111835858 338.6599520326118Q575.2640641487677 335.93138517609117 572.2270506041187 331.32841152248267Q569.1900370594698 326.7017112005564 569.1900370594698 319.275264017157L569.1900370594698 319.275264017157Q569.1900370594698 307.74410321481787 576.7588442527746 301.12436275421584Q584.303924777762 294.5046222936138 597.1163256692497 294.5046222936138L597.1163256692497 294.5046222936138Q602.4073727040679 294.5046222936138 607.3662463824401 295.40623568968147Q612.3251200608123 296.3078490857491 616.5010136847046 297.7551758531209Q620.7006339769144 299.2025026204926 623.7613741898809 300.8159160660874L623.7613741898809 300.8159160660874L622.5750407740026 314.05539698729154Q618.4703271550628 311.492916808994 614.1283468529476 309.8320500267641Q609.7626398825147 308.1711832445342 605.7528329368453 307.4356565266895Q601.743025991176 306.72385647716237 598.6585591098918 306.72385647716237L598.6585591098918 306.72385647716237Q595.1470121988915 306.72385647716237 591.7066452928437 307.69664987818277Q588.2425517184786 308.6931699475207 585.9410648916743 311.2793767941358Q583.6158513965523 313.88931030906855 583.6158513965523 318.7532773141705L583.6158513965523 318.7532773141705Q583.6158513965523 322.2648242251708 585.2529915104648 324.6612177252454Q586.8664049560595 327.05761122532004 590.8762119017289 328.93201802240804Q594.9097455157158 330.80642481949604 601.9802926743517 332.84691829480715L601.9802926743517 332.84691829480715Q610.4507132637242 335.338218468152 616.477287016387 338.01933198803744Q622.4801341007322 340.7241721762404 625.7306876602394 345.0661524783557Q628.9812412197465 349.43185944878866 628.9812412197465 357.1192999836813L628.9812412197465 357.1192999836813Q628.9812412197465 364.5457471670807 625.7306876602394 370.4062342415206Q622.4801341007322 376.2429946476428 615.5756736203193 379.6596348853729Q608.6474864715889 383.076275123103 597.543405698966 383.076275123103ZM683.481398345205 383.076275123103L683.481398345205 383.076275123103Q675.0109777558325 383.076275123103 669.126764013075 380.13416825172436Q663.2425502703177 377.1920613803456 660.2055367256687 371.1654876276828Q657.1685231810196 365.13891387502 657.1685231810196 355.7431532212623L657.1685231810196 355.7431532212623Q657.1685231810196 348.31670603786284 657.1685231810196 341.00889219605125Q657.1685231810196 333.70107835423966 657.1685231810196 326.65425786392126Q657.1685231810196 319.607437373603 657.1685231810196 313.0826035862712Q657.1685231810196 306.5577697989394 657.1685231810196 300.57864938291175L657.1685231810196 300.57864938291175Q657.1685231810196 291.8472354420459 657.1685231810196 284.4207882586465Q657.1685231810196 276.994341075247 657.1685231810196 268.9747271839084L657.1685231810196 268.9747271839084L671.0960774834334 265.89026030262426Q671.0960774834334 272.2015540750979 671.0960774834334 277.5875077831863Q671.0960774834334 282.97346149127475 671.0960774834334 288.43059520431586Q671.0960774834334 293.9114555856745 671.0960774834334 300.57864938291175L671.0960774834334 300.57864938291175L671.0960774834334 352.42141965680247Q671.0960774834334 361.5561869590669 674.9872510875148 366.1591606126755Q678.8546980232788 370.78586093460166 686.898038582935 370.78586093460166L686.898038582935 370.78586093460166Q690.0536854691718 370.78586093460166 693.802499063348 369.718160860311Q697.5750393258415 368.65046078602035 700.4696928605852 366.34897395921604L700.4696928605852 366.34897395921604L701.6797529447813 378.7342948209877Q699.9714328259163 380.0155349101364 697.0530526228551 380.98832831115686Q694.1583990881115 381.9611217121772 690.6468521771112 382.53056175179887Q687.1590319344284 383.076275123103 683.481398345205 383.076275123103ZM660.9173367751958 307.6491965415476L640.8445753785314 307.6491965415476L640.8445753785314 296.4739357639721L700.8255928853487 296.4739357639721L700.8255928853487 307.6491965415476Q692.2839922910234 307.6491965415476 683.6000316867928 307.6491965415476Q674.9397977508797 307.6491965415476 666.7303705130005 307.6491965415476L666.7303705130005 307.6491965415476L660.9173367751958 307.6491965415476ZM735.4902552973185 381.201868326015L721.396614316682 381.201868326015Q721.396614316682 371.71120099898695 721.396614316682 363.0035137264387Q721.396614316682 354.29582645389047 721.396614316682 343.7849123892069L721.396614316682 343.7849123892069L721.396614316682 335.24331179488166Q721.396614316682 325.8475511411239 721.396614316682 316.02471045764986Q721.396614316682 306.20186977417586 721.396614316682 296.4739357639721L721.396614316682 296.4739357639721L733.710755173501 295.61977570453956L734.1378352032173 312.86906357141305L735.5851619705888 312.86906357141305Q739.0729822132716 305.08671636325005 743.6522291985627 301.12436275421584Q748.2314761838538 297.1620091451816 752.9293565107328 295.78586238276256Q757.6272368376115 294.4097156203435 761.5421371100106 294.4097156203435L761.5421371100106 294.4097156203435Q763.9385306100853 294.4097156203435 766.3349241101598 294.76561564510706Q768.7313176102343 295.09778900155305 770.8667177588156 295.8807690560328L770.8667177588156 295.8807690560328L769.585477669667 310.0455900416222Q766.7620041398761 309.54733000695325 764.4842439813892 309.1914299821897Q762.2302104912201 308.8592566257437 759.2406502832064 308.8592566257437L759.2406502832064 308.8592566257437Q756.7730767781791 308.8592566257437 753.6411565602598 309.5710566752708Q750.532963010658 310.3065833931155 747.2349561145159 312.5606168832847Q743.9606758866912 314.83837704177137 740.8762090054072 319.32271735379214Q737.791742124123 323.8070576658129 735.4902552973185 331.23350484921235L735.4902552973185 331.23350484921235L735.4902552973185 344.3780790971462Q735.4902552973185 354.3907331271608 735.4902552973185 363.05096706307387Q735.4902552973185 371.71120099898695 735.4902552973185 381.201868326015L735.4902552973185 381.201868326015ZM826.2922149486594 383.076275123103L826.2922149486594 383.076275123103Q815.781300883976 383.076275123103 807.8091403292724 379.44609487051474Q799.8132531062513 375.8159146179266 794.4272993981629 369.57580085040564Q789.0413456900744 363.3594137512022 786.2653254969186 355.2686198549108Q783.4893053037629 347.20155262693703 783.4893053037629 338.3277786761658L783.4893053037629 338.3277786761658Q783.4893053037629 325.5865577896306 788.6617189969932 315.739990437839Q793.8341326902234 305.86969641772987 803.3485266855691 300.1515693531955Q812.8866473492324 294.4097156203435 826.0312215971662 294.4097156203435L826.0312215971662 294.4097156203435Q836.2099623054037 294.4097156203435 844.0634895185194 297.7551758531209Q851.9170167316352 301.0769094175807 857.3741504446764 307.05602983360836Q862.8550108260349 313.03515024963605 865.6784843558257 321.03103747265715Q868.478231217299 329.0031980273607 868.478231217299 338.3277786761658L868.478231217299 338.3277786761658Q868.478231217299 350.87918621616035 863.353270860704 361.0342002560804Q858.2283105041088 371.21294096431797 848.8088231820334 377.14460804371043Q839.3656091916405 383.076275123103 826.2922149486594 383.076275123103ZM826.2922149486594 370.78586093460166L826.2922149486594 370.78586093460166Q835.593068929147 370.78586093460166 841.7620026917152 366.1591606126755Q847.9072097859657 361.5561869590669 850.9679499989325 354.1297397756675Q854.0524168802165 346.70329259226804 854.0524168802165 338.3277786761658L854.0524168802165 338.3277786761658Q854.0524168802165 328.76593134418505 850.6357766424865 321.6716575172316Q847.2191364047562 314.57738369027817 840.9790226372354 310.6387567495615Q834.7389088697144 306.72385647716237 826.1973082753891 306.72385647716237L826.1973082753891 306.72385647716237Q816.9913609681719 306.72385647716237 810.6563405273807 310.89975010105474Q804.3450467549071 315.0993703932647 801.141946532035 322.2648242251708Q797.9388463091632 329.43027805707703 797.9388463091632 338.3277786761658L797.9388463091632 338.3277786761658Q797.9388463091632 346.70329259226804 801.047039858765 354.1297397756675Q804.178960076684 361.5561869590669 810.4902538491576 366.1591606126755Q816.8015476216315 370.78586093460166 826.2922149486594 370.78586093460166ZM905.8240071491543 381.201868326015L891.7303661685178 381.201868326015Q891.7303661685178 371.71120099898695 891.7303661685178 363.0035137264387Q891.7303661685178 354.29582645389047 891.7303661685178 343.7849123892069L891.7303661685178 343.7849123892069L891.7303661685178 335.24331179488166Q891.7303661685178 325.8475511411239 891.7303661685178 316.02471045764986Q891.7303661685178 306.20186977417586 891.7303661685178 296.4739357639721L891.7303661685178 296.4739357639721L904.020780357019 295.61977570453956L904.4478603867353 311.326830130771L905.9900938273774 311.326830130771Q908.718660683898 307.4831098633246 912.9894609810606 303.56820959092556Q917.2602612782232 299.62958265020893 923.0732950160279 297.0196491352762Q928.8863287538325 294.4097156203435 936.3839559421847 294.4097156203435L936.3839559421847 294.4097156203435Q949.8844302148821 294.4097156203435 956.1245439824031 302.1920628285065Q962.3646577499239 309.9744100366695 962.3646577499239 324.7323977301981L962.3646577499239 324.7323977301981Q962.3646577499239 330.28443811650953 962.3646577499239 334.55523841367216Q962.3646577499239 338.8260387108348 962.3646577499239 343.7849123892069L962.3646577499239 343.7849123892069Q962.3646577499239 353.8687464241743 962.3646577499239 362.78997371158056Q962.3646577499239 371.71120099898695 962.3646577499239 381.201868326015L962.3646577499239 381.201868326015L948.2710167692874 381.201868326015Q948.2710167692874 371.71120099898695 948.2710167692874 362.8848803848509Q948.2710167692874 354.03483310239716 948.2710167692874 344.3780790971462L948.2710167692874 344.3780790971462L948.2710167692874 328.33885131446874Q948.2710167692874 318.16011060623117 944.6408365166992 312.96397024468337Q941.0106562641108 307.74410321481787 931.5199889370829 307.74410321481787L931.5199889370829 307.74410321481787Q925.8018618725484 307.74410321481787 921.1039815456695 310.0455900416222Q916.4061012187908 312.34707686842654 912.6098342879795 316.238250472508Q908.8135673571683 320.1294240765895 905.8240071491543 324.8273044034684L905.8240071491543 324.8273044034684L905.8240071491543 344.3780790971462Q905.8240071491543 354.3907331271608 905.8240071491543 363.05096706307387Q905.8240071491543 371.71120099898695 905.8240071491543 381.201868326015L905.8240071491543 381.201868326015ZM1016.6038215238891 415.8902574063025L1016.6038215238891 415.8902574063025Q1007.1131541968612 415.8902574063025 1000.8018604243875 414.1819372874374Q994.4668399835964 412.4736171685724 990.8129330626905 409.55523696551126Q987.1352994734673 406.66058343076764 985.5456126961901 403.10158318313216Q983.9796525872302 399.5663096038142 983.9796525872302 395.8886760145909L983.9796525872302 395.8886760145909Q983.9796525872302 390.17054895005646 986.7793994487035 386.279375345975Q989.6028729784944 382.3882017418935 993.3754132409881 380.1816215883594Q997.1242268351641 377.9513147665079 999.9477003649552 377.0971547070754L999.9477003649552 377.0971547070754L999.9477003649552 375.9108212911969Q998.5003735975833 375.4837412614806 996.4361534539546 374.0601411624264Q994.3956599786436 372.66026773168977 992.7585198647312 370.09778755339215Q991.1451064191365 367.53530737509465 991.1451064191365 363.5966804343779L991.1451064191365 363.5966804343779Q991.1451064191365 360.6071202263641 992.3077131666976 358.0446400480666Q993.4465932459409 355.48215986976896 995.8429867460154 353.5365730677283Q998.2393802460899 351.56725959736997 1001.7272004887727 350.11993282999816L1001.7272004887727 350.11993282999816L1001.7272004887727 348.83869274084935Q999.781613686732 348.15061935963985 996.697146805448 346.27621256255173Q993.6126799241638 344.3780790971462 990.504486374562 341.17497887427425Q987.3962928249605 337.9718786514023 985.2608926763792 333.27399832452335Q983.1254925277979 328.57611799764453 983.1254925277979 322.1699175519006L983.1254925277979 322.1699175519006Q983.1254925277979 313.88931030906855 987.1827528101023 307.6491965415476Q991.2400130924068 301.43280944234425 998.7139136124415 297.96871586797903Q1006.187814132476 294.5046222936138 1016.2479214991256 294.5046222936138L1016.2479214991256 294.5046222936138Q1020.3526351180653 294.5046222936138 1023.3896486627143 294.93170232333006Q1026.4266622073633 295.3587823530463 1029.6772157668706 295.8333157193977Q1032.90404265806 296.3078490857491 1037.601922984939 296.3078490857491L1037.601922984939 296.3078490857491L1064.0097048223943 296.3078490857491L1064.0097048223943 306.88994315538537Q1055.539284233022 306.88994315538537 1047.5196703416832 306.88994315538537Q1039.5000564503443 306.88994315538537 1031.3855358857354 306.88994315538537L1031.3855358857354 306.88994315538537L1035.3953428314048 300.2227493581482Q1042.9166966880748 303.80547627410124 1046.1909769158992 309.76087002181134Q1049.4889838120416 315.69253710120387 1049.4889838120416 323.1189842846033L1049.4889838120416 323.1189842846033Q1049.4889838120416 331.49449820070555 1046.0723435743116 337.26007860187514Q1042.6557033365812 343.0256590030446 1036.4155895690606 346.56093258236257Q1030.1754758015395 350.11993282999816 1021.8948685587075 351.99433962708616L1021.8948685587075 351.99433962708616Q1012.9261879346659 354.1297397756675 1008.560480964233 355.88551323116764Q1004.2185006621175 357.6175600183503 1004.2185006621175 361.1291069293507L1004.2185006621175 361.1291069293507Q1004.2185006621175 363.5966804343779 1005.9980007859353 364.972827196797Q1007.8012275780707 366.34897395921604 1011.6924011821523 366.94214066715534Q1015.5835747862338 367.53530737509465 1021.9897752319778 367.53530737509465L1021.9897752319778 367.53530737509465L1025.6436821528837 367.53530737509465Q1037.4358363067158 367.53530737509465 1044.9571901633858 369.3622608355475Q1052.4785440200553 371.21294096431797 1056.1087242726435 375.4837412614806Q1059.7389045252316 379.7545415586432 1059.7389045252316 386.84881538559665L1059.7389045252316 386.84881538559665Q1059.7389045252316 394.18035589572577 1055.8951842577853 399.68494294540204Q1052.051463990339 405.21325666339595 1045.6452635445953 408.79598357934896Q1039.2390630988511 412.3787104953021 1031.6702559055466 414.13448395080223Q1024.125175380559 415.8902574063025 1016.6038215238891 415.8902574063025ZM1017.7901549397677 404.43027660891613L1017.7901549397677 404.43027660891613Q1027.1859155935258 404.43027660891613 1033.5446627026345 401.82034309398335Q1039.9271364800607 399.2341362473682 1043.0827833662975 395.6276826630976Q1046.2384302525343 392.04495574714446 1046.2384302525343 388.98421553417796L1046.2384302525343 388.98421553417796Q1046.2384302525343 385.73366197467084 1044.3640234554464 383.5982618260895Q1042.4896166583585 381.4628616775082 1037.3646563017633 380.39516160321756Q1032.239695945168 379.3274615289269 1022.4880352666466 379.3274615289269L1022.4880352666466 379.3274615289269L1019.3323883804098 379.3274615289269Q1013.8752546673688 379.3986415338797 1008.7502943107736 381.1069616527447Q1003.6253339541784 382.8152817716097 1000.3273270580362 385.8522953162587Q997.0293201618938 388.88930886090765 997.0293201618938 392.8991158065771L997.0293201618938 392.8991158065771Q997.0293201618938 395.1294226284286 998.0970202361846 397.21736944037474Q999.1647203104753 399.305316252321 1001.6085671471849 400.94245636623333Q1004.0524139838947 402.555869811828 1008.0147675929288 403.50493654453084Q1011.9771212019632 404.43027660891613 1017.7901549397677 404.43027660891613ZM1015.3225814347404 342.0054122653892L1015.3225814347404 342.0054122653892Q1018.4782283209772 341.4834255624026 1022.1084085735656 340.41572548811195Q1025.7385888261538 339.3480254138213 1028.9416890490256 337.378711943463Q1032.144789271898 335.40939847310466 1034.185282747209 332.18257158191517Q1036.2495028908374 328.93201802240804 1036.2495028908374 323.9731443440359L1036.2495028908374 323.9731443440359Q1036.2495028908374 317.8279372497852 1033.0938560046006 313.98421698233886Q1029.9144824500463 310.1404967148925 1025.2640554598024 308.289816586122Q1020.6136284695585 306.4628631256691 1016.2479214991256 306.4628631256691L1016.2479214991256 306.4628631256691Q1011.0517811375778 306.4628631256691 1006.519987488922 308.289816586122Q1001.9881938402661 310.1404967148925 999.1647203104753 313.8418569724334Q996.364973449002 317.566943898292 996.364973449002 323.2138909578736L996.364973449002 323.2138909578736Q996.364973449002 328.83711134913773 999.1409936421576 332.77573828985436Q1001.9170138353134 336.69063856225347 1006.2115408007935 339.0158520573753Q1010.5297944345914 341.3173388841796 1015.3225814347404 342.0054122653892Z " fill="#b88747" transform="matrix(0.8223609361422812,0,0,0.8223609361422812,0,19.6651537473181)"/></g></svg>